<mxfile host="app.diagrams.net" agent="Mozilla/5.0 (Windows NT 10.0; Win64; x64) AppleWebKit/537.36 (KHTML, like Gecko) Chrome/129.0.0.0 Safari/537.36" version="24.7.17">
  <diagram id="kgpKYQtTHZ0yAKxKKP6v" name="Page-1">
    <mxGraphModel dx="281" dy="600" grid="1" gridSize="10" guides="1" tooltips="1" connect="1" arrows="1" fold="1" page="1" pageScale="1" pageWidth="1100" pageHeight="850" math="0" shadow="0">
      <root>
        <mxCell id="0" />
        <mxCell id="1" parent="0" />
        <mxCell id="upQc3EDG4fMrsP7-_Z8--2" value="Horizontal Container" style="swimlane;horizontal=0;whiteSpace=wrap;html=1;" vertex="1" parent="1">
          <mxGeometry x="90" y="380" width="760" height="270" as="geometry" />
        </mxCell>
        <mxCell id="upQc3EDG4fMrsP7-_Z8--4" value="" style="rounded=1;whiteSpace=wrap;html=1;" vertex="1" parent="1">
          <mxGeometry x="90" y="20" width="690" height="190" as="geometry" />
        </mxCell>
        <mxCell id="upQc3EDG4fMrsP7-_Z8--5" value="if文（条件分岐）" style="rhombus;whiteSpace=wrap;html=1;" vertex="1" parent="1">
          <mxGeometry x="150" y="40" width="150" height="60" as="geometry" />
        </mxCell>
        <mxCell id="upQc3EDG4fMrsP7-_Z8--6" value="" style="rounded=0;whiteSpace=wrap;html=1;" vertex="1" parent="1">
          <mxGeometry x="165" y="130" width="120" height="60" as="geometry" />
        </mxCell>
        <mxCell id="upQc3EDG4fMrsP7-_Z8--7" value="処理内容" style="rounded=1;whiteSpace=wrap;html=1;" vertex="1" parent="1">
          <mxGeometry x="360" y="130" width="120" height="60" as="geometry" />
        </mxCell>
        <mxCell id="upQc3EDG4fMrsP7-_Z8--8" value="表示ルール　　※使いにくい部分は変更してください" style="rounded=1;whiteSpace=wrap;html=1;" vertex="1" parent="1">
          <mxGeometry x="120" y="10" width="330" height="30" as="geometry" />
        </mxCell>
        <mxCell id="upQc3EDG4fMrsP7-_Z8--9" value="入力された数字、記号の振り分け処理" style="rounded=1;whiteSpace=wrap;html=1;" vertex="1" parent="1">
          <mxGeometry x="90" y="290" width="250" height="60" as="geometry" />
        </mxCell>
      </root>
    </mxGraphModel>
  </diagram>
</mxfile>
